<svg width="24" height="24" viewBox="0 0 24 24" fill="none" xmlns="http://www.w3.org/2000/svg">
  <path d="M12 0C8.82997 0.0404258 5.80115 1.31765 3.55942 3.55931C1.31769 5.80097 0.0404271 8.82968 0 11.9996C0.0148187 13.8462 0.455665 15.6646 1.28821 17.3129C2.12076 18.9613 3.32255 20.3953 4.8 21.5033V21.5993H4.92C6.95182 23.1562 9.44022 24 12 24C14.5598 24 17.0482 23.1562 19.08 21.5993H19.2V21.5033C20.6775 20.3953 21.8792 18.9613 22.7118 17.3129C23.5443 15.6646 23.9852 13.8462 24 11.9996C23.9596 8.82968 22.6823 5.80097 20.4406 3.55931C18.1988 1.31765 15.17 0.0404258 12 0ZM7.284 20.3153C7.45918 19.5131 7.90338 18.7949 8.5429 18.2798C9.18242 17.7647 9.97883 17.4837 10.8 17.4834H13.2C14.0212 17.4837 14.8176 17.7647 15.4571 18.2798C16.0966 18.7949 16.5408 19.5131 16.716 20.3153C15.2866 21.1563 13.6584 21.5997 12 21.5997C10.3416 21.5997 8.71336 21.1563 7.284 20.3153ZM18.732 18.7674C18.2756 17.6766 17.5069 16.7449 16.5227 16.0895C15.5385 15.4341 14.3825 15.0841 13.2 15.0835H10.8C9.61749 15.0841 8.46153 15.4341 7.47729 16.0895C6.49306 16.7449 5.72445 17.6766 5.268 18.7674C4.3688 17.883 3.65268 16.8301 3.16058 15.6689C2.66847 14.5076 2.41002 13.2608 2.4 11.9996C2.43113 9.46328 3.45254 7.03961 5.24619 5.24602C7.03984 3.45243 9.46359 2.43105 12 2.39992C14.5364 2.43105 16.9602 3.45243 18.7538 5.24602C20.5475 7.03961 21.5689 9.46328 21.6 11.9996C21.59 13.2608 21.3315 14.5076 20.8394 15.6689C20.3473 16.8301 19.6312 17.883 18.732 18.7674Z" fill="#F17E00" />
  <path d="M12.0005 4.8001C11.3661 4.78532 10.7353 4.89938 10.1463 5.13536C9.55723 5.37134 9.02217 5.72435 8.57347 6.17304C8.12477 6.62172 7.77175 7.15676 7.53576 7.74578C7.29977 8.33481 7.18571 8.96558 7.20049 9.59995C7.18571 10.2343 7.29977 10.8651 7.53576 11.4541C7.77175 12.0431 8.12477 12.5782 8.57347 13.0269C9.02217 13.4755 9.55723 13.8285 10.1463 14.0645C10.7353 14.3005 11.3661 14.4146 12.0005 14.3998C12.6349 14.4146 13.2657 14.3005 13.8547 14.0645C14.4438 13.8285 14.9788 13.4755 15.4275 13.0269C15.8762 12.5782 16.2292 12.0431 16.4652 11.4541C16.7012 10.8651 16.8153 10.2343 16.8005 9.59995C16.8153 8.96558 16.7012 8.33481 16.4652 7.74578C16.2292 7.15676 15.8762 6.62172 15.4275 6.17304C14.9788 5.72435 14.4438 5.37134 13.8547 5.13536C13.2657 4.89938 12.6349 4.78532 12.0005 4.8001ZM12.0005 11.9999C11.6812 12.0153 11.3623 11.9638 11.0641 11.8486C10.7659 11.7335 10.4951 11.5573 10.2691 11.3313C10.0431 11.1052 9.86687 10.8345 9.75172 10.5363C9.63657 10.2381 9.58506 9.91919 9.60049 9.59995C9.58506 9.2807 9.63657 8.96175 9.75172 8.66359C9.86687 8.36543 10.0431 8.09465 10.2691 7.86864C10.4951 7.64263 10.7659 7.46639 11.0641 7.35125C11.3623 7.2361 11.6812 7.18459 12.0005 7.20002C12.3198 7.18459 12.6387 7.2361 12.9369 7.35125C13.2351 7.46639 13.5058 7.64263 13.7319 7.86864C13.9579 8.09465 14.1341 8.36543 14.2493 8.66359C14.3644 8.96175 14.4159 9.2807 14.4005 9.59995C14.4159 9.91919 14.3644 10.2381 14.2493 10.5363C14.1341 10.8345 13.9579 11.1052 13.7319 11.3313C13.5058 11.5573 13.2351 11.7335 12.9369 11.8486C12.6387 11.9638 12.3198 12.0153 12.0005 11.9999Z" fill="#F17E00" />
</svg>