<svg width="42" height="43" viewBox="0 0 42 43" fill="none" xmlns="http://www.w3.org/2000/svg">
  <path d="M38.2966 27.5874C38.7236 26.6244 39.2728 25.7204 39.9305 24.8976C40.9753 23.5082 42.0535 22.0632 41.9979 20.3849C41.9424 18.7065 40.7419 17.2504 39.586 15.9389C38.8876 15.2045 38.293 14.378 37.8187 13.4825C37.4626 12.5358 37.2382 11.5447 37.1517 10.537C36.8961 8.78083 36.6404 6.95798 35.3733 5.75756C34.1062 4.55714 32.3945 4.44599 30.6605 4.3015C29.6013 4.26164 28.5517 4.08607 27.5372 3.77909C26.5773 3.33889 25.6772 2.77866 24.8584 2.11185C23.469 1.1115 22.0241 0 20.3457 0C18.6673 0 17.2112 1.25599 15.8996 2.41195C15.1578 3.12845 14.3198 3.73822 13.4098 4.22369C12.4637 4.5837 11.4726 4.81184 10.4643 4.90171C8.69703 5.14624 6.88527 5.40188 5.68483 6.66899C4.4844 7.9361 4.36213 9.68115 4.2621 11.4151C4.22224 12.4742 4.04667 13.5239 3.73969 14.5384C3.29948 15.4982 2.73925 16.3983 2.07242 17.2171C1.0276 18.6176 -0.0839146 20.0625 0.0050064 21.7298C0.0939274 23.397 1.26102 24.8642 2.41699 26.1758C3.11532 26.9102 3.70993 27.7366 4.18429 28.6322C4.54555 29.5773 4.77012 30.5691 4.8512 31.5777C5.10685 33.3449 5.3625 35.1567 6.62962 36.3571C7.89674 37.5575 9.64182 37.6798 11.3758 37.7909C12.435 37.8219 13.4853 37.9938 14.4991 38.3022C15.4613 38.7563 16.3616 39.3315 17.1779 40.0139C18.051 40.7365 19.0198 41.3349 20.0567 41.7923C20.5759 41.9993 21.1319 42.0976 21.6906 42.0813C23.4246 42.0257 24.8251 40.8253 26.1367 39.6694C26.8711 38.971 27.6975 38.3764 28.5931 37.9021C29.5398 37.546 30.5309 37.3216 31.5386 37.2352C33.3059 36.9795 35.1177 36.7239 36.3181 35.4568C37.5185 34.1897 37.6075 32.4446 37.7408 30.7107C37.7897 29.6499 37.9765 28.5999 38.2966 27.5874Z" fill="white" />
  <path d="M38.2966 27.5874C38.7236 26.6244 39.2728 25.7204 39.9305 24.8976C40.9753 23.5082 42.0535 22.0632 41.9979 20.3849C41.9424 18.7065 40.7419 17.2504 39.586 15.9389C38.8876 15.2045 38.293 14.378 37.8187 13.4825C37.4626 12.5358 37.2382 11.5447 37.1517 10.537C36.8961 8.78083 36.6404 6.95798 35.3733 5.75756C34.1062 4.55714 32.3945 4.44599 30.6605 4.3015C29.6013 4.26164 28.5517 4.08607 27.5372 3.77909C26.5773 3.33889 25.6772 2.77866 24.8584 2.11185C23.469 1.1115 22.0241 0 20.3457 0C18.6673 0 17.2112 1.25599 15.8996 2.41195C15.1578 3.12845 14.3198 3.73822 13.4098 4.22369C12.4637 4.5837 11.4726 4.81184 10.4643 4.90171C8.69703 5.14624 6.88527 5.40188 5.68483 6.66899C4.4844 7.9361 4.36213 9.68115 4.2621 11.4151C4.22224 12.4742 4.04667 13.5239 3.73969 14.5384C3.29948 15.4982 2.73925 16.3983 2.07242 17.2171C1.0276 18.6176 -0.0839146 20.0625 0.0050064 21.7298C0.0939274 23.397 1.26102 24.8642 2.41699 26.1758C3.11532 26.9102 3.70993 27.7366 4.18429 28.6322C4.54555 29.5773 4.77012 30.5691 4.8512 31.5777C5.10685 33.3449 5.3625 35.1567 6.62962 36.3571C7.89674 37.5575 9.64182 37.6798 11.3758 37.7909C12.435 37.8219 13.4853 37.9938 14.4991 38.3022C15.4613 38.7563 16.3616 39.3315 17.1779 40.0139C18.051 40.7365 19.0198 41.3349 20.0567 41.7923C20.5759 41.9993 21.1319 42.0976 21.6906 42.0813C23.4246 42.0257 24.8251 40.8253 26.1367 39.6694C26.8711 38.971 27.6975 38.3764 28.5931 37.9021C29.5398 37.546 30.5309 37.3216 31.5386 37.2352C33.3059 36.9795 35.1177 36.7239 36.3181 35.4568C37.5185 34.1897 37.6075 32.4446 37.7408 30.7107C37.7798 29.6551 37.9554 28.609 38.2633 27.5985L38.2966 27.5874ZM36.5071 30.5884C36.3848 32.1779 36.2625 33.6784 35.3956 34.5787C34.5286 35.479 32.9836 35.6902 31.3719 35.957C30.2294 36.0586 29.1069 36.3205 28.0373 36.735C27.0317 37.2552 26.1038 37.9137 25.2808 38.6912C24.0359 39.8027 22.8688 40.7586 21.5795 40.8031C20.2901 40.8475 19.1452 39.9361 17.867 38.9914C16.9617 38.2393 15.9552 37.6182 14.877 37.1463C13.7567 36.7929 12.5941 36.5911 11.4202 36.5461C9.83078 36.4238 8.33023 36.3015 7.44102 35.4346C6.55181 34.5676 6.32951 33.0226 6.05163 31.4109C5.95443 30.2688 5.69622 29.1462 5.28469 28.0764C4.75658 27.0729 4.09475 26.1456 3.31731 25.3199C2.2058 24.075 1.2499 22.908 1.20544 21.6186C1.16098 20.3293 2.13911 19.2511 3.09501 17.9729C3.8398 17.0646 4.45685 16.0586 4.92901 14.983C5.28234 13.8627 5.4842 12.7001 5.52922 11.5262C5.65149 9.93679 5.77376 8.43627 6.64074 7.54707C7.50771 6.65787 9.05272 6.43557 10.6644 6.1577C11.8065 6.06049 12.9291 5.80229 13.9989 5.39077C15.0025 4.86266 15.9299 4.20084 16.7555 3.42341C18.0004 2.31192 19.1675 1.35603 20.4568 1.32268C20.8379 1.31643 21.2162 1.3883 21.5683 1.53387C22.4932 1.94786 23.357 2.48637 24.1359 3.13442C25.0443 3.87921 26.0503 4.49625 27.1259 4.9684C28.236 5.31504 29.3872 5.51313 30.5494 5.55749C32.1388 5.67975 33.6394 5.81313 34.5397 6.66899C35.44 7.52484 35.6512 9.08094 35.918 10.6926C36.0152 11.8347 36.2734 12.9573 36.6849 14.0271C37.213 15.0307 37.8748 15.958 38.6523 16.7836C39.7638 18.0285 40.7197 19.1956 40.7642 20.4849C40.8086 21.7742 39.8972 22.9191 38.9413 24.1973C38.1965 25.1057 37.5794 26.1116 37.1073 27.1872C36.754 28.3076 36.5521 29.4701 36.5071 30.644V30.5884Z" fill="#75C94D" />
  <path d="M33.5329 18.5771C33.3296 18.8138 33.1144 19.0401 32.8883 19.2551C32.577 19.533 32.2436 19.7886 31.899 20.0665C32.2121 20.2674 32.4697 20.5436 32.6484 20.8698C32.827 21.196 32.921 21.5619 32.9216 21.9338C32.9222 22.298 32.8332 22.6567 32.6627 22.9784C32.4921 23.3001 32.2452 23.575 31.9435 23.7789C32.173 24.1251 32.3009 24.5287 32.3128 24.944C32.3246 25.3592 32.2198 25.7694 32.0104 26.1281C31.8009 26.4869 31.4952 26.7797 31.1278 26.9735C30.7603 27.1673 30.346 27.2543 29.9316 27.2246C29.9098 27.5544 29.8146 27.8752 29.6531 28.1636C29.4916 28.452 29.2678 28.7008 28.998 28.8918C28.7339 29.0801 28.4329 29.2102 28.1148 29.2734C27.7967 29.3367 27.4688 29.3316 27.1529 29.2586C27.0306 29.5365 26.9528 29.8032 26.8194 30.0478C26.5267 30.5371 26.0571 30.8952 25.5078 31.0481C24.9584 31.2061 24.3693 31.1464 23.8628 30.8814C22.9736 30.4034 22.1066 29.8922 21.2285 29.392L20.9617 29.2475C20.9089 29.337 20.8494 29.4225 20.7839 29.5031C20.5572 29.8493 20.2383 30.1252 19.8632 30.3C19.4882 30.4748 19.0718 30.5414 18.6609 30.4924C18.2691 30.4608 17.8936 30.3216 17.5759 30.0902C17.2581 29.8587 17.0105 29.544 16.8603 29.1808C16.8524 29.1464 16.8378 29.1139 16.8173 29.0852C16.7968 29.0565 16.7708 29.0321 16.7408 29.0135C16.7109 28.9949 16.6775 28.9824 16.6427 28.9768C16.6078 28.9711 16.5722 28.9725 16.5379 28.9807C16.0606 29.0353 15.5784 28.9337 15.1636 28.6913C14.7488 28.4488 14.4238 28.0785 14.2371 27.6358C14.2217 27.5886 14.1893 27.5487 14.1461 27.5241C14.103 27.4994 14.0522 27.4917 14.0037 27.5024C13.5162 27.569 13.0204 27.472 12.594 27.2266C12.1676 26.9812 11.8346 26.6013 11.6473 26.1464C11.5695 25.9908 11.4694 26.0241 11.3583 26.0353C10.8793 26.0815 10.3982 25.9711 9.98728 25.7205C9.57639 25.47 9.2579 25.0929 9.07967 24.6459C8.95448 24.3487 8.8994 24.0267 8.91867 23.7048C8.93795 23.3829 9.03107 23.0698 9.19082 22.7897C9.45758 22.2784 9.75769 21.7893 10.0578 21.2669L8.74621 20.5111L8.40164 20.3222C8.31067 20.276 8.23032 20.2114 8.16574 20.1324C8.10115 20.0534 8.05374 19.9619 8.02655 19.8635C7.99935 19.7652 7.99296 19.6623 8.00779 19.5614C8.02261 19.4604 8.05833 19.3637 8.11265 19.2774L12.3253 11.4969C12.3705 11.3965 12.4375 11.3074 12.5213 11.236C12.6051 11.1646 12.7038 11.1127 12.8101 11.084C12.9164 11.0553 13.0277 11.0505 13.1361 11.07C13.2445 11.0895 13.3472 11.1328 13.4368 11.1968L16.5046 12.9529C16.5607 12.9897 16.6264 13.0094 16.6935 13.0094C16.7607 13.0094 16.8263 12.9897 16.8825 12.9529L20.3615 10.9633C20.7197 10.7437 21.1241 10.6103 21.5426 10.5737C21.9612 10.537 22.3826 10.5981 22.7735 10.7522L24.9965 11.5524C25.1109 11.5971 25.2378 11.5971 25.3522 11.5524L27.7753 10.1742C27.8697 10.0975 27.9808 10.044 28.0996 10.018C28.2184 9.99198 28.3417 9.9942 28.4595 10.0245C28.5773 10.0547 28.6864 10.1122 28.778 10.1922C28.8696 10.2723 28.9411 10.3727 28.9869 10.4854L33.4329 17.9102L33.6107 18.1992L33.5329 18.5771ZM21.7064 27.9359C22.6623 28.4806 23.6071 29.0474 24.5741 29.5476C24.7219 29.622 24.8912 29.6417 25.0521 29.6032C25.2 29.5782 25.336 29.5064 25.4401 29.3984C25.5441 29.2903 25.6107 29.1517 25.6301 29.003C25.6509 28.8507 25.6248 28.6958 25.5553 28.5588C25.4858 28.4218 25.3762 28.3092 25.2411 28.236L23.5293 27.2913C23.3899 27.2246 23.2751 27.1157 23.2012 26.98C23.1274 26.8442 23.0983 26.6887 23.1181 26.5354C23.1399 26.4174 23.1896 26.3063 23.2629 26.2113C23.3362 26.1162 23.4311 26.0401 23.5398 25.989C23.6484 25.9379 23.7676 25.9135 23.8876 25.9177C24.0075 25.9219 24.1248 25.9545 24.2296 26.013C25.1966 26.5577 26.1525 27.1245 27.1195 27.658C27.3203 27.7537 27.5423 27.7958 27.7642 27.7803C27.9112 27.7539 28.0454 27.6796 28.1459 27.5691C28.2464 27.4585 28.3076 27.3179 28.3199 27.169C28.3442 27.0167 28.3183 26.8606 28.2461 26.7242C28.174 26.5879 28.0594 26.4787 27.9198 26.4132L25.041 24.7682C24.9345 24.7304 24.8379 24.6692 24.7582 24.5891C24.6784 24.5091 24.6177 24.4122 24.5804 24.3055C24.543 24.1989 24.5301 24.0853 24.5425 23.973C24.5549 23.8607 24.5923 23.7526 24.652 23.6567C24.709 23.5674 24.7837 23.4908 24.8715 23.4314C24.9592 23.3721 25.0581 23.3313 25.1622 23.3115C25.2663 23.2917 25.3733 23.2934 25.4767 23.3164C25.58 23.3395 25.6776 23.3834 25.7635 23.4455L27.2974 24.3236L29.5204 25.5795C29.6418 25.6617 29.785 25.7057 29.9316 25.7057C30.0782 25.7057 30.2215 25.6617 30.3429 25.5795C30.4629 25.5039 30.5592 25.3961 30.6208 25.2683C30.6603 25.1379 30.6603 24.9986 30.6208 24.8682C30.599 24.7387 30.5462 24.6165 30.4668 24.512C30.3874 24.4074 30.2839 24.3237 30.1651 24.268C29.0869 23.6011 27.842 22.8897 26.6082 22.2228C26.5076 22.1857 26.4162 22.1273 26.3403 22.0515C26.2643 21.9758 26.2056 21.8846 26.1682 21.7841C26.1308 21.6836 26.1155 21.5762 26.1234 21.4693C26.1313 21.3623 26.1622 21.2583 26.214 21.1644C26.2658 21.0705 26.3373 20.9889 26.4236 20.9252C26.5098 20.8615 26.6088 20.8172 26.7138 20.7952C26.8188 20.7733 26.9272 20.7743 27.0318 20.7982C27.1364 20.822 27.2345 20.8682 27.3196 20.9335L30.2651 22.6007C30.3512 22.6666 30.4506 22.7129 30.5564 22.7363C30.6622 22.7598 30.7718 22.7599 30.8776 22.7366C30.9835 22.7133 31.083 22.6672 31.1691 22.6015C31.2553 22.5358 31.3261 22.4521 31.3766 22.3562C31.4283 22.2689 31.4613 22.1718 31.4735 22.0711C31.4858 21.9704 31.477 21.8682 31.4477 21.7711C31.4185 21.6739 31.3694 21.5839 31.3036 21.5067C31.2378 21.4295 31.1567 21.3668 31.0654 21.3225L21.3396 15.765H21.184H21.0284L19.8613 16.4208C19.0388 16.8876 18.2163 17.3767 17.3827 17.8324C16.8775 18.1115 16.2836 18.1833 15.7265 18.0325C15.1708 17.8874 14.6928 17.5329 14.3927 17.0432C14.0971 16.557 13.9991 15.976 14.1191 15.4198C14.239 14.8636 14.5677 14.3745 15.0374 14.0533C15.0374 14.0533 15.1152 13.9866 15.1819 13.9422L13.3145 12.8307L9.71323 19.3774C10.0467 19.5663 10.3579 19.7331 10.658 19.922C10.7112 19.9704 10.7806 19.9973 10.8525 19.9973C10.9245 19.9973 10.9938 19.9704 11.047 19.922C11.5067 19.5781 12.0817 19.4254 12.6514 19.4959C13.2212 19.5663 13.7416 19.8544 14.1037 20.2999L14.2482 20.4667C14.599 20.2503 15.0031 20.1357 15.4153 20.1357C15.8275 20.1357 16.2316 20.2503 16.5824 20.4667C16.9351 20.6698 17.2253 20.9658 17.4213 21.3226C17.6173 21.6793 17.7116 22.0829 17.6939 22.4896H17.7828C18.3331 22.5449 18.8429 22.8033 19.2129 23.2143C19.5828 23.6254 19.7863 24.1596 19.7835 24.7126C19.8011 24.7512 19.8272 24.7853 19.8599 24.8123C19.8927 24.8393 19.9312 24.8584 19.9725 24.8682C20.4001 24.9306 20.8003 25.1162 21.124 25.4025C21.4478 25.6887 21.6811 26.0631 21.7954 26.4799C21.9358 26.9608 21.9043 27.4756 21.7064 27.9359ZM27.9754 11.7525L25.7523 13.053C25.6249 13.1319 25.4797 13.1777 25.33 13.1863C25.1823 13.1968 25.0342 13.174 24.8965 13.1197L22.2511 12.2193C22.062 12.1383 21.8562 12.104 21.6511 12.1195C21.446 12.135 21.2476 12.1997 21.0729 12.3083L15.9155 15.2537C15.8157 15.3093 15.7287 15.385 15.6598 15.476C15.5503 15.6061 15.4947 15.7731 15.5042 15.9429C15.5058 16.1114 15.569 16.2735 15.682 16.3986C15.802 16.5344 15.9668 16.6225 16.1463 16.647C16.3259 16.6715 16.5082 16.6307 16.6602 16.532C17.9829 15.7872 19.2945 15.0425 20.606 14.309C20.7609 14.2062 20.9426 14.1514 21.1285 14.1514C21.3143 14.1514 21.496 14.2062 21.6509 14.309L27.7753 17.7768L30.4985 19.3329L31.8101 18.2214L27.9754 11.7525ZM16.2378 22.334C16.2313 22.1709 16.1743 22.0138 16.0748 21.8844C15.9752 21.755 15.838 21.6597 15.682 21.6115C15.5174 21.5634 15.3412 21.5737 15.1833 21.6405C15.0253 21.7074 14.8952 21.8267 14.8151 21.9783C14.2371 22.9453 13.7036 23.9234 13.1033 24.8904C13.0375 24.9765 12.9912 25.0759 12.9677 25.1817C12.9443 25.2875 12.9442 25.3971 12.9675 25.503C12.9908 25.6088 13.0369 25.7083 13.1026 25.7945C13.1683 25.8806 13.252 25.9514 13.3479 26.0019C13.4376 26.0536 13.5369 26.0863 13.6398 26.0979C13.7426 26.1096 13.8468 26.1001 13.9458 26.0698C14.0448 26.0396 14.1365 25.9894 14.2153 25.9223C14.2941 25.8551 14.3583 25.7725 14.4038 25.6796C14.9707 24.7237 15.5153 23.7678 16.0822 22.8008C16.1503 22.6704 16.2025 22.5323 16.2378 22.3895V22.334ZM18.3386 24.6681C18.3288 24.5032 18.2708 24.3447 18.1718 24.2124C18.068 24.0856 17.9287 23.9927 17.7717 23.9456C17.6071 23.8954 17.4301 23.9046 17.2716 23.9716C17.1131 24.0387 16.9833 24.1593 16.9047 24.3124C16.4935 25.0016 16.0933 25.6907 15.6932 26.3798C15.6392 26.4646 15.6029 26.5594 15.5866 26.6586C15.5702 26.7577 15.5741 26.8592 15.598 26.9568C15.6219 27.0544 15.6653 27.1462 15.7255 27.2266C15.7858 27.307 15.8618 27.3744 15.9488 27.4246C16.0374 27.4749 16.1352 27.5067 16.2363 27.5182C16.3375 27.5297 16.4399 27.5207 16.5375 27.4916C16.6351 27.4625 16.7258 27.414 16.8042 27.3491C16.8826 27.2841 16.947 27.2039 16.9936 27.1134L18.1941 25.0571C18.2519 24.9313 18.3002 24.8012 18.3386 24.6681ZM11.136 24.557C11.2548 24.5682 11.3744 24.5451 11.4805 24.4903C11.589 24.4331 11.6809 24.3489 11.7473 24.2457C12.1919 23.5047 12.6254 22.7638 13.0478 22.0228C13.1328 21.8582 13.1514 21.6672 13.0997 21.4893C13.048 21.3114 12.9299 21.1602 12.7699 21.0669C12.6094 20.9684 12.4172 20.9354 12.233 20.9747C12.0489 21.014 11.8869 21.1226 11.7806 21.278C11.3138 22.0228 10.8692 22.7675 10.4579 23.501C10.399 23.614 10.3709 23.7405 10.3766 23.8678C10.3823 23.9951 10.4216 24.1186 10.4904 24.2258C10.5593 24.333 10.6552 24.4202 10.7686 24.4783C10.882 24.5365 11.0087 24.5636 11.136 24.557ZM18.9165 29.003C19.0447 29.008 19.1717 28.9772 19.2833 28.914C19.3949 28.8562 19.4875 28.7674 19.5501 28.6584C19.8169 28.2249 20.0725 27.7803 20.3282 27.3246C20.3729 27.242 20.4009 27.1513 20.4104 27.0578C20.42 26.9644 20.4109 26.8699 20.3837 26.78C20.3289 26.5965 20.2055 26.4413 20.0392 26.3465C19.875 26.2497 19.6792 26.2218 19.4945 26.2687C19.3097 26.3132 19.1476 26.424 19.0388 26.5799C18.7609 27.0245 18.4942 27.4802 18.2496 27.947C18.1903 28.0598 18.1634 28.1867 18.1718 28.3138C18.1746 28.437 18.2132 28.5568 18.283 28.6584C18.3456 28.7674 18.4382 28.8562 18.5498 28.914C18.6637 28.971 18.7891 29.0014 18.9165 29.003Z" fill="#75C94D" />
</svg>