<svg width="39" height="39" viewBox="0 0 39 39" fill="none" xmlns="http://www.w3.org/2000/svg">
  <path d="M14.6971 22.9961H12.9393L9.5175 17.3828V22.9961H7.75964V14.4648H9.5175L12.9452 20.0898V14.4648H14.6971V22.9961ZM21.3651 19.2988H17.9901V21.584H21.951V22.9961H16.2323V14.4648H21.9393V15.8887H17.9901V17.9219H21.3651V19.2988ZM29.6268 20.5351L30.7753 14.4648H32.5272L30.6346 22.9961H28.8651L27.4764 17.2891L26.0878 22.9961H24.3182L22.4257 14.4648H24.1776L25.3319 20.5234L26.7382 14.4648H28.2264L29.6268 20.5351Z" fill="#111111" />
  <path d="M19.5 39C30.2696 39 39 30.2696 39 19.5C39 8.73045 30.2696 0 19.5 0C8.73045 0 0 8.73045 0 19.5C0 30.2696 8.73045 39 19.5 39Z" fill="white" />
  <path d="M24.7387 20C24.7013 20 24.6634 19.9986 24.6253 19.9959C23.9656 19.9487 23.4806 19.502 23.5428 18.9985C23.5806 18.6889 23.6 18.3779 23.6 18.0743C23.6 14.7515 21.3116 11.8182 20 10.4101C18.6887 11.8177 16.4 14.751 16.4 18.0743C16.4 18.3782 16.4194 18.6889 16.4572 18.9985C16.5194 19.502 16.0344 19.9487 15.3747 19.9959C14.715 20.0432 14.1297 19.6732 14.0678 19.1698C14.0228 18.8034 14 18.4349 14 18.0743C14 12.7281 18.8966 8.4837 19.105 8.3058C19.3328 8.1111 19.6581 8 20 8C20.3416 8 20.6672 8.1111 20.8947 8.3058C21.1034 8.4837 26 12.7281 26 18.0743C26 18.4349 25.9772 18.8034 25.9322 19.1698C25.8737 19.6441 25.3509 20 24.7387 20Z" fill="#FFF000" />
  <path d="M31.0769 17C28.2204 17 25.4531 17.959 23.2844 19.7005C21.8418 20.859 20.7207 22.3156 20 23.9367C19.2793 22.3156 18.1582 20.859 16.7156 19.7005C14.5471 17.959 11.7796 17 8.9231 17C8.4135 17 8 17.3883 8 17.8673C8 20.5513 9.0207 23.1516 10.8743 25.1894C12.707 27.2041 15.2404 28.5532 18.0079 28.9878C18.0594 28.9959 18.1106 29 18.1613 29C18.6041 29 18.9952 28.6996 19.0707 28.2754C19.1546 27.8031 18.8151 27.3559 18.3125 27.2771C13.7281 26.5568 10.3185 23.0538 9.8916 18.7771C14.4428 19.1783 18.1712 22.382 18.9377 26.6896C19.0216 27.1621 19.4974 27.481 20.0002 27.402C20.5031 27.4808 20.9786 27.1619 21.0627 26.6896C21.8291 22.382 25.5575 19.1783 30.1089 18.7771C29.682 23.0538 26.2721 26.5568 21.688 27.2771C21.1851 27.3559 20.8457 27.8031 20.9298 28.2754C21.005 28.6996 21.3962 29 21.8389 29C21.8894 29 21.9409 28.9959 21.9923 28.9878C24.7599 28.5532 27.2935 27.2041 29.126 25.1894C30.9793 23.1518 32 20.5513 32 17.8673C32 17.3883 31.5868 17 31.0769 17Z" fill="#75C94D" />
  <path d="M20 32C18.3458 32 17 30.6542 17 29C17 27.3458 18.3458 26 20 26C21.6542 26 23 27.3458 23 29C23 30.6542 21.6542 32 20 32ZM20 28C19.4487 28 19 28.4487 19 29C19 29.5513 19.4487 30 20 30C20.5513 30 21 29.5513 21 29C21 28.4487 20.5513 28 20 28Z" fill="#F17E00" />
</svg>