<svg width="39" height="39" viewBox="0 0 39 39" fill="none" xmlns="http://www.w3.org/2000/svg">
  <path d="M19.5 39C30.2696 39 39 30.2696 39 19.5C39 8.73045 30.2696 0 19.5 0C8.73045 0 0 8.73045 0 19.5C0 30.2696 8.73045 39 19.5 39Z" fill="white" />
  <path d="M25.6302 10.9678C25.3628 10.7004 24.9292 10.7004 24.6618 10.9678C24.0125 11.617 23.2634 12.1291 22.4495 12.4895C22.7517 12.1252 22.9235 11.6631 22.9235 11.1785V11.0565C22.9235 10.3882 22.6125 9.7808 22.0704 9.39C21.5283 8.9992 20.8537 8.8963 20.2198 9.1076C19.9475 9.1984 19.7044 9.3423 19.4999 9.5251C19.2953 9.3423 19.0523 9.1984 18.78 9.1076C18.1459 8.8963 17.4714 8.9992 16.9293 9.39C16.3871 9.7808 16.0762 10.3882 16.0762 11.0565V11.1785C16.0762 11.6631 16.248 12.1252 16.5502 12.4895C15.7363 12.1291 14.9871 11.617 14.3379 10.9678C14.0705 10.7004 13.6369 10.7004 13.3695 10.9678C13.1021 11.2352 13.1021 11.6688 13.3695 11.9362C14.5125 13.0791 15.9166 13.8636 17.4456 14.2345V29.3153C17.4456 29.6935 17.7522 30.0001 18.1304 30.0001C18.5086 30.0001 18.8152 29.6935 18.8152 29.3153V14.4523C19.0418 14.47 19.2701 14.4792 19.4998 14.4792C19.7296 14.4792 19.9579 14.4699 20.1845 14.4523V29.3153C20.1845 29.6935 20.4911 30.0001 20.8692 30.0001C21.2474 30.0001 21.554 29.6935 21.554 29.3153V14.2345C23.083 13.8636 24.4871 13.0791 25.6301 11.9362C25.8976 11.6687 25.8976 11.2352 25.6302 10.9678ZM20.6528 10.4069C20.7249 10.3829 20.7985 10.371 20.8715 10.371C21.0124 10.371 21.1506 10.4152 21.2697 10.5011C21.4504 10.6313 21.554 10.8338 21.554 11.0566V11.1786C21.554 11.403 21.4439 11.6133 21.2594 11.7413L20.1845 12.4865V11.0565C20.1845 10.7613 20.3727 10.5003 20.6528 10.4069ZM17.4456 11.0565C17.4456 10.8338 17.5493 10.6313 17.7299 10.501C17.849 10.4152 17.9872 10.371 18.1281 10.371C18.201 10.371 18.2747 10.3829 18.3468 10.4069C18.6268 10.5002 18.815 10.7613 18.815 11.0565V12.4864L17.7401 11.7411C17.5556 11.6132 17.4455 11.4029 17.4455 11.1784V11.0565H17.4456Z" fill="#FFF000" stroke="#FFF000" stroke-width="0.5" />
  <path d="M26.5757 30.0006H12.4243C11.2917 30.0006 10.3701 29.0791 10.3701 27.9464V17.9035C10.3701 17.5254 10.6767 17.2188 11.0549 17.2188C11.433 17.2188 11.7396 17.5254 11.7396 17.9035V27.9464C11.7396 28.3239 12.0468 28.6312 12.4244 28.6312H26.5757C26.9533 28.6312 27.2605 28.3239 27.2605 27.9464V17.9035C27.2605 17.5254 27.5671 17.2188 27.9452 17.2188C28.3234 17.2188 28.63 17.5254 28.63 17.9035V27.9464C28.6299 29.0791 27.7084 30.0006 26.5757 30.0006Z" fill="#F17E00" stroke="#F17E00" stroke-width="0.5" />
  <path d="M29.3146 18.5873H9.68529C9.30709 18.5873 9.00049 18.2808 9.00049 17.9026V15.1636C9.00049 14.0309 9.92209 13.1094 11.0548 13.1094H27.9451C29.0778 13.1094 29.9993 14.0309 29.9993 15.1636V17.9026C29.9994 18.2808 29.6928 18.5873 29.3146 18.5873ZM10.3701 17.2179H28.6299V15.1637C28.6299 14.7861 28.3227 14.4789 27.9451 14.4789H11.0548C10.6773 14.4789 10.3701 14.7861 10.3701 15.1637V17.2179Z" fill="#75C94D" stroke="#75C94D" stroke-width="0.5" />
</svg>