<svg width="47" height="47" viewBox="0 0 47 47" fill="none" xmlns="http://www.w3.org/2000/svg">
  <path d="M23 44C34.598 44 44 34.598 44 23C44 11.402 34.598 2 23 2C11.402 2 2 11.402 2 23C2 34.598 11.402 44 23 44Z" fill="#75C94D" />
  <path d="M14.0037 26.6204C14.8076 28.3131 16.5876 29.5308 18.646 29.5308C18.8006 29.5308 18.9554 29.5236 19.1092 29.5096L19.3717 29.9035V34.6588C19.3717 35.0597 19.6965 35.3845 20.0973 35.3845H25.9026C26.3034 35.3845 26.6282 35.0597 26.6282 34.6588V29.9035L26.8908 29.5096C27.0446 29.5236 27.1993 29.5308 27.354 29.5308C29.4119 29.5308 31.1922 28.3134 31.9963 26.6204C33.8854 26.4964 35.3846 24.9198 35.3846 22.9998C35.3846 21.763 34.7629 20.6358 33.7564 19.9728C33.8739 19.5412 33.9332 19.0972 33.9332 18.6458C33.9332 17.291 33.3958 16.0073 32.4199 15.0312C31.4439 14.0554 30.1602 13.5179 28.8052 13.5179C28.6724 13.5179 28.5405 13.5231 28.4096 13.5332C27.2008 11.7215 25.1715 10.6152 23 10.6152C20.8285 10.6152 18.7991 11.7215 17.5904 13.5332C14.5718 13.3025 12.0667 15.7489 12.0667 18.6458C12.0667 19.0972 12.126 19.5412 12.2438 19.9728C11.2371 20.6358 10.6154 21.763 10.6154 22.9998C10.6154 24.9198 12.1145 26.4964 14.0037 26.6204ZM25.177 29.6837V33.9331H20.823V29.6837C20.823 29.5404 20.7806 29.4004 20.7011 29.2813C20.3141 28.7009 17.9546 25.1613 17.5625 24.573C17.6988 24.2896 17.7977 23.9903 17.8563 23.6813C18.1101 23.6473 18.3599 23.593 18.6046 23.5203L20.9449 27.0307C21.342 27.6265 22.2743 27.3436 22.2743 26.6281V23.6837C22.5145 23.7109 22.7568 23.7255 23 23.7255C23.2431 23.7255 23.4854 23.7109 23.7256 23.6837V26.6281C23.7256 27.3486 24.6597 27.6236 25.0551 27.0307L27.3953 23.5203C27.64 23.593 27.8898 23.6473 28.1437 23.6813C28.2023 23.9901 28.3009 24.2896 28.4375 24.573C28.0454 25.1616 25.6862 28.6999 25.2989 29.2813C25.2193 29.4004 25.177 29.5404 25.177 29.6837ZM19.9881 22.9793C20.2591 23.1213 20.5378 23.2444 20.823 23.3464V24.2314L19.9881 22.9793ZM25.177 23.3464C25.4624 23.2444 25.7408 23.1212 26.0118 22.9793L25.177 24.2314V23.3464ZM13.4082 20.9905C13.7784 20.8363 13.9536 20.4105 13.7988 20.0405C13.6125 19.595 13.518 19.126 13.518 18.6458C13.518 16.6303 15.2471 14.9077 17.3086 14.972C18.2941 15.0153 19.1239 15.3954 19.7602 16.0319C20.0437 16.3153 20.503 16.3153 20.7865 16.0319C21.07 15.7485 21.07 15.2891 20.7865 15.0056C20.3039 14.5228 19.7409 14.1495 19.1281 13.8974C20.0845 12.7506 21.499 12.0666 23 12.0666C24.501 12.0666 25.9154 12.7506 26.8718 13.8974C26.2588 14.1495 25.696 14.5231 25.2135 15.0056C24.9299 15.2891 24.9299 15.7485 25.2135 16.0319C25.4967 16.3153 25.9562 16.3153 26.2396 16.0319C26.952 15.3196 27.8855 14.9692 28.8052 14.9692C30.7982 14.9692 32.482 16.653 32.482 18.6458C32.482 19.126 32.3874 19.5953 32.2013 20.0405C32.0466 20.4104 32.2213 20.8363 32.5917 20.9905C33.4066 21.3299 33.9332 22.1185 33.9332 22.9998C33.9332 24.2002 32.9567 25.1768 31.7563 25.1768C31.695 25.1768 31.633 25.1742 31.5724 25.1693C31.2431 25.1415 30.9367 25.3403 30.8273 25.6523C30.3826 26.9205 29.2074 27.8487 27.8695 28.0417L29.8926 25.0069C30.0548 24.7635 30.0551 24.4465 29.8931 24.2029C29.6562 23.8463 29.531 23.4303 29.531 22.9998C29.531 22.599 29.2061 22.2742 28.8052 22.2742C28.0095 22.2742 27.243 22.0039 26.5884 21.4928C26.3448 21.3026 26.0075 21.2875 25.7478 21.4553C24.9192 21.9911 23.969 22.2742 23 22.2742C22.031 22.2742 21.0808 21.9911 20.2521 21.4553C19.9927 21.2875 19.6552 21.3025 19.4116 21.4928C18.7569 22.0039 17.9904 22.2742 17.1947 22.2742C16.7939 22.2742 16.469 22.599 16.469 22.9998C16.469 23.4303 16.3437 23.8463 16.1068 24.2029C15.9448 24.4465 15.9452 24.7635 16.1073 25.0069L18.1304 28.0417C16.7926 27.8487 15.6173 26.9205 15.1727 25.6523C15.0633 25.3403 14.7569 25.1416 14.4276 25.1693C14.3669 25.1742 14.3049 25.1768 14.2436 25.1768C13.0433 25.1768 12.0667 24.2002 12.0667 22.9998C12.0667 22.1185 12.5934 21.3296 13.4082 20.9905Z" fill="white" />
</svg>