<svg width="39" height="39" viewBox="0 0 39 39" fill="none" xmlns="http://www.w3.org/2000/svg">
  <path d="M19.5 39C30.2696 39 39 30.2696 39 19.5C39 8.73045 30.2696 0 19.5 0C8.73045 0 0 8.73045 0 19.5C0 30.2696 8.73045 39 19.5 39Z" fill="white" />
  <path d="M24.2813 31.0001C22.5716 31.0001 20.8997 30.695 19.3122 30.0935C18.9489 29.9558 18.7662 29.5501 18.9037 29.1868C19.0414 28.8237 19.4471 28.641 19.8104 28.7785C21.2383 29.3196 22.7425 29.5939 24.2813 29.5939C25.5112 29.5939 26.7272 29.417 27.8956 29.0682C27.8967 29.068 27.8978 29.0676 27.8987 29.0672C27.8987 29.0671 27.8987 29.0669 27.8987 29.0667C27.8973 29.066 27.8953 29.0654 27.8931 29.0647C26.0091 28.4641 24.3077 27.3682 22.973 25.8949C22.7123 25.6071 22.7342 25.1625 23.0221 24.9018C23.3099 24.641 23.7545 24.663 24.0153 24.9507C25.1835 26.2403 26.6721 27.1996 28.3201 27.7247C28.915 27.9142 29.3108 28.4593 29.305 29.0812C29.2993 29.7013 28.8945 30.2376 28.2979 30.4158C26.999 30.8034 25.6476 31.0001 24.2813 31.0001Z" fill="#F17E00" />
  <path d="M21.4625 22.8256C21.1798 22.8256 20.9132 22.654 20.8059 22.3744C20.1163 20.578 19.8975 18.5032 20.1898 16.5326C20.2467 16.1487 20.6041 15.8835 20.9883 15.9403C21.3724 15.9972 21.6378 16.3548 21.5808 16.739C21.3236 18.4739 21.5145 20.2964 22.1188 21.8703C22.2579 22.2329 22.0769 22.6397 21.7143 22.7787C21.6315 22.8106 21.5462 22.8256 21.4625 22.8256Z" fill="#F17E00" />
  <path d="M24.3655 26.5767C24.1113 26.7005 23.7965 26.663 23.5776 26.4586C22.171 25.1456 21.0657 23.3761 20.4654 21.4766C20.3485 21.1064 20.5537 20.7116 20.9239 20.5944C21.2942 20.4773 21.6893 20.6826 21.8064 21.0529C22.3348 22.7253 23.3046 24.2801 24.5371 25.4305C24.821 25.6955 24.8364 26.1405 24.5713 26.4243C24.5109 26.4891 24.4407 26.54 24.3655 26.5767Z" fill="#F17E00" />
  <path d="M15.3957 27.3597C15.1461 27.4925 14.8302 27.4662 14.6042 27.2698C13.1517 26.0076 11.9841 24.2787 11.3166 22.4017C11.1865 22.036 11.3775 21.634 11.7433 21.5037C12.1092 21.3736 12.5114 21.5647 12.6416 21.9306C13.2293 23.5831 14.2538 25.1023 15.5265 26.2081C15.8196 26.4628 15.8508 26.9071 15.596 27.2001C15.5379 27.2671 15.4696 27.3204 15.3957 27.3597Z" fill="#F17E00" />
  <path d="M19.9976 29.7938C19.8254 30.0181 19.527 30.1251 19.2399 30.0399C17.395 29.4929 15.616 28.4031 14.2309 26.9713C13.961 26.6923 13.9683 26.2473 14.2473 25.9772C14.5264 25.7071 14.9716 25.7144 15.2416 25.9935C16.4611 27.2541 18.023 28.2124 19.6395 28.6916C20.0118 28.8019 20.2243 29.1933 20.1137 29.5655C20.0886 29.6506 20.0485 29.7274 19.9976 29.7938Z" fill="#F17E00" />
  <path d="M11.8614 22.5627C11.5818 22.5627 11.3176 22.3948 11.2079 22.1192C10.5608 20.4921 10.2188 18.6678 10.2188 16.8438C10.2188 16.4554 10.5335 16.1406 10.9219 16.1406C11.3102 16.1406 11.625 16.4554 11.625 16.8438C11.625 18.4681 11.9409 20.1572 12.5145 21.5995C12.6581 21.9604 12.4819 22.3693 12.121 22.5127C12.0359 22.5466 11.948 22.5627 11.8614 22.5627Z" fill="#F17E00" />
  <path d="M15.87 12.1564C15.8442 12.1564 15.8182 12.155 15.792 12.152C15.406 12.1094 15.1277 11.7618 15.1703 11.3759C15.4461 8.8812 17.5491 7 20.0622 7C20.4506 7 20.7653 7.3148 20.7653 7.7031C20.7653 8.0915 20.4506 8.4062 20.0622 8.4062C18.267 8.4062 16.765 9.7493 16.5682 11.5304C16.5282 11.8902 16.2237 12.1564 15.87 12.1564Z" fill="#75C94D" />
  <path d="M15.8436 19.6561C15.6085 19.6561 15.3889 19.5386 15.2586 19.343L14.4368 18.1104C14.055 17.5376 13.4436 17.1637 12.7597 17.0848C12.0758 17.0059 11.3954 17.2306 10.893 17.7013L9.67569 18.8417C9.49089 19.0149 9.22709 19.0753 8.98519 18.9997C8.74349 18.9243 8.56089 18.7245 8.50769 18.4768C8.37989 17.8844 8.28149 17.2772 8.21509 16.6719C8.06529 15.3087 8.29799 13.9546 8.88819 12.7558C9.73669 11.0302 11.461 9.95801 13.3882 9.95801C14.278 9.95801 15.1352 10.189 15.8929 10.6301C16.6201 10.2517 17.4324 10.0534 18.2675 10.0534C20.1927 10.0534 21.904 11.1046 22.7337 12.7967C23.2859 13.9224 23.578 15.1778 23.578 16.4269V18.2499C23.578 18.5227 23.4201 18.7708 23.1731 18.8867C22.9259 19.0025 22.6342 18.9647 22.4248 18.7901L20.8059 17.4411C20.2896 17.0106 19.6388 16.827 18.9736 16.9233C18.3084 17.0198 17.7367 17.3811 17.3637 17.9403L16.4286 19.343C16.2982 19.5386 16.0787 19.6561 15.8436 19.6561ZM12.4891 15.663C12.6327 15.663 12.7768 15.6712 12.9209 15.6879C14.0162 15.8142 14.9953 16.413 15.6068 17.3303L15.8436 17.6854L16.1937 17.1602C16.7822 16.2775 17.7219 15.6839 18.7718 15.5317C19.8217 15.3794 20.8913 15.6817 21.7063 16.3608L22.1717 16.7486V16.4269C22.1717 15.3913 21.9295 14.3501 21.4712 13.4159C20.8795 12.2093 19.652 11.4596 18.2675 11.4596C17.5459 11.4596 16.8494 11.6621 16.2532 12.0452C16.0113 12.2005 15.6991 12.193 15.4651 12.026C14.8578 11.5931 14.1396 11.3642 13.3882 11.3642C12.0011 11.3642 10.7602 12.1355 10.1499 13.3767C9.67809 14.3353 9.49239 15.4215 9.61289 16.5183C9.62789 16.6543 9.64459 16.7905 9.66309 16.9266L9.93149 16.675C10.63 16.0204 11.5437 15.663 12.4891 15.663Z" fill="#75C94D" />
</svg>