<svg width="20" height="17" viewBox="0 0 20 17" fill="none" xmlns="http://www.w3.org/2000/svg">
  <path d="M19.345 0.357254C19.3305 0.282525 19.2982 0.213003 19.251 0.155444C19.2038 0.0978846 19.1434 0.0542331 19.0756 0.028715C18.8202 -0.0237796 18.5564 -0.00405314 18.3105 0.085872C18.3105 0.085872 1.31789 6.56509 0.345416 7.28214C0.137992 7.43641 0.0760327 7.52782 0.0329315 7.63066C-0.134086 8.14203 0.388518 8.36774 0.388518 8.36774L4.76867 9.88183C4.84124 9.9006 4.917 9.9006 4.98956 9.88183C5.98628 9.21333 15.0133 3.16835 15.5359 2.96552C15.6167 2.93981 15.6787 2.96551 15.6625 3.02836C15.4524 3.80541 7.61066 11.196 7.61066 11.196C7.59155 11.2226 7.57529 11.2513 7.56217 11.2817L7.1554 15.8897C7.1554 15.8897 6.98299 17.301 8.31374 15.8897C9.25389 14.8927 10.1617 14.0585 10.617 13.6557C12.1228 14.7584 13.7445 15.9783 14.4422 16.6153C14.5601 16.7355 14.6995 16.8295 14.8522 16.8918C15.0048 16.9541 15.1677 16.9835 15.3312 16.9782C15.9938 16.9524 16.1797 16.1782 16.1797 16.1782C16.1797 16.1782 19.2776 2.95981 19.38 1.18859C19.38 1.01719 19.4042 0.902904 19.4042 0.785775C19.4058 0.64052 19.3858 0.495906 19.345 0.357254Z" fill="#F17E00" />
</svg>