<svg width="20" height="20" viewBox="0 0 18 17" fill="none" xmlns="http://www.w3.org/2000/svg">
  <path d="M16.457 3.92624C13.7963 -0.0001297 8.36389 -1.16743 4.15102 1.27329C0.0490165 3.714 -1.28136 9.01991 1.3794 12.9463L1.60113 13.2646L0.714207 16.4482L4.04016 15.5992L4.37275 15.8115C5.814 16.5543 7.36611 16.9788 8.91822 16.9788C10.5812 16.9788 12.2442 16.5543 13.6854 15.7053C17.7874 13.1585 19.0069 7.95873 16.457 3.92624ZM14.1289 12.0973C13.6854 12.734 13.1311 13.1585 12.355 13.2646C11.9116 13.2646 11.3572 13.4769 9.13995 12.6279C7.25524 11.779 5.70313 10.3994 4.59448 8.80767C3.92929 8.06485 3.5967 7.10978 3.48583 6.15472C3.48583 5.30578 3.81843 4.56295 4.37275 4.03236C4.59448 3.82012 4.81621 3.714 5.03794 3.714H5.59227C5.814 3.714 6.03573 3.714 6.14659 4.13848C6.36832 4.66907 6.92265 5.94248 6.92265 6.0486C7.03351 6.15472 7.03351 6.36696 6.92265 6.47308C7.03351 6.68531 6.92265 6.89755 6.81178 7.00367C6.70092 7.10978 6.59005 7.32202 6.47919 7.42814C6.25746 7.53426 6.14659 7.74649 6.25746 7.95873C6.70092 8.59544 7.25524 9.23215 7.80957 9.76274C8.47476 10.2933 9.13995 10.7178 9.916 11.0362C10.1377 11.1423 10.3595 11.1423 10.4703 10.93C10.5812 10.7178 11.1355 10.1872 11.3572 9.97497C11.579 9.76274 11.6898 9.76274 11.9116 9.86885L13.6854 10.7178C13.9071 10.8239 14.1289 10.93 14.2397 11.0362C14.3506 11.3545 14.3506 11.779 14.1289 12.0973Z" fill="#F17E00" />
</svg>